P2
7 5
255
  0   0   0   0   0   0  50
150 255 255 255 255 255  50
150 255 255 255 255 255  50
150 255 255 255 255 255  50
150 100 100 100 100 100 100
