P2
7 5
255
75 110 121 125 126 143 96 
160 195 206 210 211 164 103 
188 223 234 238 239 177 110 
197 193 195 197 197 131 113 
148 147 147 148 148 126 119 
