P2
7 5
255
0 25 50 100 150 200 250 
0 25 50 100 150 200 250 
0 25 50 100 150 200 250 
0 25 50 100 150 200 250 
0 25 50 100 150 200 250 