P2
7 5
255
12 29 59 103 151 200 225 
12 29 59 103 151 200 225 
12 29 59 103 151 200 225 
12 29 59 103 151 200 225 
18 32 63 105 152 200 212 
